<?xml version="1.0" encoding="UTF-8" standalone="no"?>
<!-- Created with Inkscape (http://www.inkscape.org/) -->

<svg
   width="184.62485mm"
   height="60.300255mm"
   viewBox="0 0 184.62485 60.300255"
   version="1.1"
   id="svg9425"
   inkscape:version="1.1 (c68e22c387, 2021-05-23)"
   sodipodi:docname="atos.svg"
   xmlns:inkscape="http://www.inkscape.org/namespaces/inkscape"
   xmlns:sodipodi="http://sodipodi.sourceforge.net/DTD/sodipodi-0.dtd"
   xmlns="http://www.w3.org/2000/svg"
   xmlns:svg="http://www.w3.org/2000/svg">
  <sodipodi:namedview
     id="namedview9427"
     pagecolor="#ffffff"
     bordercolor="#666666"
     borderopacity="1.0"
     inkscape:pageshadow="2"
     inkscape:pageopacity="0.0"
     inkscape:pagecheckerboard="0"
     inkscape:document-units="mm"
     showgrid="false"
     fit-margin-top="0"
     fit-margin-left="0"
     fit-margin-right="0"
     fit-margin-bottom="0"
     inkscape:zoom="0.56301908"
     inkscape:cx="714.89584"
     inkscape:cy="114.56095"
     inkscape:window-width="1600"
     inkscape:window-height="821"
     inkscape:window-x="-9"
     inkscape:window-y="-9"
     inkscape:window-maximized="1"
     inkscape:current-layer="layer1" />
  <defs
     id="defs9422" />
  <g
     inkscape:label="Calque 1"
     inkscape:groupmode="layer"
     id="layer1"
     transform="translate(-8.2927957,-5.5701394)">
    <g
       id="g10434"
       transform="matrix(0.70381047,0,0,0.70381047,2.3462626,-61.522742)"
       style="fill:#0044aa">
      <path
         style="fill:#0044aa;stroke-width:0.264583"
         d="m 120.98423,180.84867 c 0.1819,-0.0734 0.47956,-0.0734 0.66146,0 0.1819,0.0734 0.0331,0.13345 -0.33073,0.13345 -0.3638,0 -0.51263,-0.0601 -0.33073,-0.13345 z m 3.7207,-0.006 c 0.191,-0.0764 0.4192,-0.067 0.50712,0.0209 0.0879,0.0879 -0.0684,0.15045 -0.34726,0.13896 -0.30823,-0.0127 -0.37092,-0.0754 -0.15986,-0.15985 z m 49.47709,0 c 0.19099,-0.0764 0.4192,-0.067 0.50711,0.0209 0.0879,0.0879 -0.0684,0.15045 -0.34726,0.13896 -0.30823,-0.0127 -0.37092,-0.0754 -0.15985,-0.15985 z m 58.47291,0 c 0.19099,-0.0764 0.4192,-0.067 0.50712,0.0209 0.0879,0.0879 -0.0683,0.15045 -0.34727,0.13896 -0.30822,-0.0127 -0.37092,-0.0754 -0.15985,-0.15985 z m 7.67292,0 c 0.19099,-0.0764 0.4192,-0.067 0.50712,0.0209 0.0879,0.0879 -0.0684,0.15045 -0.34727,0.13896 -0.30823,-0.0127 -0.37092,-0.0754 -0.15985,-0.15985 z M 145.12746,171.399 c 0,-0.0549 0.20836,-0.2633 0.46302,-0.46302 0.41965,-0.32911 0.429,-0.31975 0.0999,0.0999 -0.34565,0.44073 -0.56292,0.58089 -0.56292,0.36313 z m -26.0866,-6.84542 -0.50402,-0.59531 0.59531,0.50403 c 0.55944,0.47366 0.71576,0.6866 0.50403,0.6866 -0.0502,0 -0.3181,-0.2679 -0.59532,-0.59532 z M 98.685905,141.07181 c 0,-9.96817 0.03295,-14.04607 0.07321,-9.06198 0.04026,4.98409 0.04026,13.13987 0,18.12396 -0.04027,4.98409 -0.07321,0.9062 -0.07321,-9.06198 z m 17.197285,-1.5875 c 0,-9.09505 0.0332,-12.81575 0.0738,-8.26823 0.0406,4.54753 0.0406,11.98894 0,16.53646 -0.0406,4.54753 -0.0738,0.82682 -0.0738,-8.26823 z m 134.77927,12.50156 c -0.32911,-0.41964 -0.31975,-0.429 0.0999,-0.0999 0.44073,0.34564 0.58089,0.56292 0.36313,0.56292 -0.0549,0 -0.2633,-0.20836 -0.46302,-0.46303 z m -116.32153,-6.94531 c 0,-0.50932 0.0545,-0.71768 0.121,-0.46302 0.0666,0.25466 0.0666,0.67138 0,0.92604 -0.0666,0.25466 -0.121,0.0463 -0.121,-0.46302 z m 73.83665,-1.05833 c 0,-0.80037 0.0496,-1.12779 0.11022,-0.72761 0.0606,0.40019 0.0606,1.05503 0,1.45521 -0.0606,0.40019 -0.11022,0.0728 -0.11022,-0.7276 z m -73.83665,-1.05833 c 0,-0.50933 0.0545,-0.71769 0.121,-0.46303 0.0666,0.25467 0.0666,0.67138 0,0.92605 -0.0666,0.25466 -0.121,0.0463 -0.121,-0.46302 z m 25.88867,-15.76476 c 0.0127,-0.30823 0.0754,-0.37092 0.15985,-0.15985 0.0764,0.19099 0.067,0.41919 -0.0209,0.50712 -0.0879,0.0879 -0.15045,-0.0684 -0.13896,-0.34727 z m 24.28702,-0.57327 c -0.3291,-0.41964 -0.31974,-0.429 0.0999,-0.0999 0.44073,0.34564 0.58089,0.56292 0.36313,0.56292 -0.0549,0 -0.2633,-0.20836 -0.46303,-0.46303 z m 67.96552,-5.26845 c 0.1819,-0.0734 0.47956,-0.0734 0.66146,0 0.1819,0.0734 0.0331,0.13345 -0.33073,0.13345 -0.3638,0 -0.51263,-0.06 -0.33073,-0.13345 z m -42.73497,-1.41227 c 0,-0.50933 0.0545,-0.71769 0.12101,-0.46303 0.0665,0.25467 0.0665,0.67138 0,0.92605 -0.0666,0.25466 -0.12101,0.0463 -0.12101,-0.46302 z m 55.80748,-1.05834 c 0,-0.3638 0.0601,-0.51263 0.13345,-0.33073 0.0734,0.1819 0.0734,0.47956 0,0.66146 -0.0734,0.1819 -0.13345,0.0331 -0.13345,-0.33073 z m 0.26458,-6.61458 c 0,-0.3638 0.0601,-0.51263 0.13345,-0.33073 0.0734,0.1819 0.0734,0.47956 0,0.66146 -0.0734,0.1819 -0.13345,0.0331 -0.13345,-0.33073 z m -167.132875,-9.39271 0.0067,-7.14375 h 8.598955 8.59896 l 0.006,7.01146 0.006,7.01146 -0.0769,-6.94532 -0.077,-6.945308 h -8.45803 -8.458019 l -0.0772,7.077608 -0.0772,7.0776 0.0067,-7.14375 z m 144.667665,6.29991 c 0.25466,-0.0666 0.67138,-0.0666 0.92604,0 0.25466,0.0665 0.0463,0.121 -0.46302,0.121 -0.50932,0 -0.71768,-0.0545 -0.46302,-0.121 z m -69.43659,-1.85044 c 0.191,-0.0764 0.4192,-0.067 0.50712,0.0209 0.0879,0.0879 -0.0684,0.15045 -0.34726,0.13896 -0.30823,-0.0127 -0.37092,-0.0754 -0.15986,-0.15985 z m 92.16638,-1.67134 c 0,-0.36381 0.0601,-0.51263 0.13346,-0.33073 0.0734,0.1819 0.0734,0.47955 0,0.66145 -0.0734,0.18191 -0.13346,0.0331 -0.13346,-0.33072 z m 0.26459,-6.614588 c 0,-0.363802 0.06,-0.51263 0.13345,-0.330729 0.0734,0.181901 0.0734,0.479557 0,0.661458 -0.0734,0.181901 -0.13345,0.03307 -0.13345,-0.330729 z m -19.14139,-3.620324 c 0.191,-0.07643 0.4192,-0.06703 0.50712,0.02089 0.0879,0.08792 -0.0684,0.150453 -0.34726,0.138964 -0.30823,-0.0127 -0.37092,-0.07539 -0.15986,-0.159852 z"
         id="path10448" />
      <path
         style="fill:#0044aa;stroke-width:0.264583"
         d="m 122.04256,180.84867 c 0.18191,-0.0734 0.47956,-0.0734 0.66146,0 0.1819,0.0734 0.0331,0.13345 -0.33073,0.13345 -0.3638,0 -0.51263,-0.0601 -0.33073,-0.13345 z m 1.46025,-0.008 c 0.25743,-0.0671 0.61462,-0.0627 0.79375,0.01 0.17913,0.0725 -0.0315,0.12736 -0.46806,0.12197 -0.43656,-0.005 -0.58312,-0.0647 -0.32569,-0.13177 z m 109.94587,0.003 c 0.19099,-0.0764 0.4192,-0.067 0.50712,0.0209 0.0879,0.0879 -0.0684,0.15045 -0.34727,0.13896 -0.30822,-0.0127 -0.37092,-0.0754 -0.15985,-0.15985 z m 6.08542,0 c 0.19099,-0.0764 0.4192,-0.067 0.50712,0.0209 0.0879,0.0879 -0.0684,0.15045 -0.34727,0.13896 -0.30823,-0.0127 -0.37092,-0.0754 -0.15985,-0.15985 z M 15.66123,179.50274 c 4.100603,-0.041 10.887165,-0.041 15.08125,-7e-5 4.194084,0.041 0.839046,0.0745 -7.455641,0.0745 -8.294687,3e-5 -11.726211,-0.0335 -7.625609,-0.0745 z m 57.168836,-5e-5 c 4.402005,-0.0407 11.605286,-0.0407 16.007291,0 4.402005,0.0407 0.800365,0.074 -8.003645,0.074 -8.80401,0 -12.405651,-0.0333 -8.003646,-0.074 z m 65.153644,-16.83494 c 0,-0.0549 0.20836,-0.2633 0.46302,-0.46302 0.41965,-0.32911 0.429,-0.31975 0.0999,0.0999 -0.34565,0.44073 -0.56292,0.58089 -0.56292,0.36313 z m -22.18322,-6.2501 c 0,-0.36381 0.0601,-0.51263 0.13345,-0.33073 0.0734,0.1819 0.0734,0.47955 0,0.66145 -0.0734,0.18191 -0.13345,0.0331 -0.13345,-0.33072 z m 44.4598,-26.06146 c 0.005,-0.43657 0.0647,-0.58313 0.13177,-0.3257 0.0671,0.25743 0.0627,0.61462 -0.01,0.79375 -0.0725,0.17913 -0.12737,-0.0315 -0.12197,-0.46805 z m -0.01,-2.24896 c 0,-0.3638 0.0601,-0.51263 0.13346,-0.33073 0.0734,0.1819 0.0734,0.47956 0,0.66146 -0.0734,0.1819 -0.13346,0.0331 -0.13346,-0.33073 z m 93.55459,-6.80131 c 0.32742,-0.0631 0.8632,-0.0631 1.19062,0 0.32743,0.0631 0.0595,0.11466 -0.59531,0.11466 -0.65484,0 -0.92273,-0.0516 -0.59531,-0.11466 z m 11.74959,-3.51744 c 0,-0.3638 0.0601,-0.51263 0.13345,-0.33073 0.0734,0.1819 0.0734,0.47956 0,0.66146 -0.0734,0.1819 -0.13345,0.0331 -0.13345,-0.33073 z m 0.24369,-6.50434 c 0.0127,-0.30823 0.0754,-0.37092 0.15985,-0.15985 0.0764,0.19099 0.067,0.4192 -0.0209,0.50711 -0.0879,0.0879 -0.15045,-0.0683 -0.13897,-0.34726 z m -23.7622,-2.14568 c 0.25743,-0.0671 0.61462,-0.0627 0.79375,0.01 0.17913,0.0725 -0.0315,0.12736 -0.46806,0.12197 -0.43656,-0.005 -0.58313,-0.0647 -0.32569,-0.13177 z m 2.90538,9.8e-4 c 0.25466,-0.0665 0.67138,-0.0665 0.92604,0 0.25466,0.0666 0.0463,0.121 -0.46302,0.121 -0.50932,0 -0.71768,-0.0545 -0.46302,-0.121 z m 21.12141,-4.46988 c 0.0127,-0.30822 0.0754,-0.37091 0.15985,-0.15985 0.0764,0.191 0.067,0.4192 -0.0209,0.50712 -0.0879,0.0879 -0.15045,-0.0683 -0.13896,-0.34727 z"
         id="path10446" />
      <path
         style="fill:#0044aa;stroke-width:0.264583"
         d="m 234.22589,180.84867 c 0.1819,-0.0734 0.47956,-0.0734 0.66146,0 0.1819,0.0734 0.0331,0.13345 -0.33073,0.13345 -0.3638,0 -0.51263,-0.0601 -0.33073,-0.13345 z m -90.42135,-8.12675 c 0,-0.0549 0.20836,-0.2633 0.46302,-0.46302 0.41965,-0.32911 0.42901,-0.31975 0.0999,0.0999 -0.34564,0.44073 -0.56292,0.58089 -0.56292,0.36313 z M 45.595968,144.57776 c 3.247731,-0.0421 8.486481,-0.0421 11.641666,1.1e-4 3.155188,0.0422 0.497954,0.0766 -5.904963,0.0766 -6.402916,-6e-5 -8.984432,-0.0346 -5.736703,-0.0767 z m 114.654512,-15.4122 c 0,-0.3638 0.0601,-0.51263 0.13346,-0.33073 0.0734,0.1819 0.0734,0.47956 0,0.66146 -0.0734,0.1819 -0.13346,0.0331 -0.13346,-0.33073 z m 15.58953,0.11025 c 0.0127,-0.30823 0.0754,-0.37092 0.15985,-0.15986 0.0764,0.191 0.067,0.4192 -0.0209,0.50712 -0.0879,0.0879 -0.15045,-0.0684 -0.13897,-0.34726 z m -86.473486,-6.39325 c 1.70987,-0.0461 4.507838,-0.0461 6.217708,0 1.70987,0.0461 0.310885,0.0838 -3.108854,0.0838 -3.419739,0 -4.818724,-0.0377 -3.108854,-0.0838 z m 31.370316,-5.3e-4 c 2.66521,-0.0432 6.95146,-0.0431 9.525,1.6e-4 2.57354,0.0433 0.39291,0.0786 -4.84584,0.0785 -5.23875,-8e-5 -7.34437,-0.0355 -4.67916,-0.0787 z m 135.05259,-1.57177 c 0.25467,-0.0666 0.67138,-0.0666 0.92605,0 0.25466,0.0666 0.0463,0.121 -0.46302,0.121 -0.50933,0 -0.71769,-0.0544 -0.46303,-0.121 z m -3.41677,-9.6072 c 0,-1.0914 0.0467,-1.53789 0.10379,-0.99219 0.0571,0.54571 0.0571,1.43868 0,1.98438 -0.0571,0.5457 -0.10379,0.0992 -0.10379,-0.99219 z m 13.42568,-1.21267 c 0.0127,-0.30823 0.0754,-0.37092 0.15985,-0.15985 0.0764,0.19099 0.067,0.4192 -0.0209,0.50711 -0.0879,0.0879 -0.15045,-0.0683 -0.13897,-0.34726 z m -19.38508,-1.34932 c 0.191,-0.0764 0.4192,-0.067 0.50712,0.0209 0.0879,0.0879 -0.0683,0.15045 -0.34726,0.13896 -0.30823,-0.0127 -0.37092,-0.0754 -0.15986,-0.15985 z m -77.01028,-1.84657 c 0.1819,-0.0734 0.47956,-0.0734 0.66146,0 0.1819,0.0734 0.0331,0.13345 -0.33073,0.13345 -0.3638,0 -0.51263,-0.06 -0.33073,-0.13345 z m 3.45612,-0.006 c 0.19099,-0.0764 0.4192,-0.067 0.50712,0.0209 0.0879,0.0879 -0.0684,0.15045 -0.34727,0.13896 -0.30822,-0.0127 -0.37092,-0.0754 -0.15985,-0.15985 z m 93.20383,-3.41318 c 0.0127,-0.30823 0.0754,-0.37092 0.15985,-0.15986 0.0764,0.191 0.067,0.4192 -0.0209,0.50712 -0.0879,0.0879 -0.15045,-0.0684 -0.13896,-0.34726 z M 37.792061,95.894304 c 4.921936,-0.04033 12.899123,-0.04031 17.727083,5.1e-5 4.82796,0.04036 0.800923,0.07336 -8.948973,0.07333 -9.749895,-2.8e-5 -13.700045,-0.03305 -8.77811,-0.07338 z"
         id="path10444" />
      <path
         style="fill:#0044aa;stroke-width:0.264583"
         d="m 169.66756,180.84867 c 0.1819,-0.0734 0.47956,-0.0734 0.66146,0 0.1819,0.0734 0.0331,0.13345 -0.33073,0.13345 -0.3638,0 -0.51263,-0.0601 -0.33073,-0.13345 z m 2.64584,0 c 0.1819,-0.0734 0.47955,-0.0734 0.66145,0 0.18191,0.0734 0.0331,0.13345 -0.33072,0.13345 -0.36381,0 -0.51264,-0.0601 -0.33073,-0.13345 z m 63.63229,-0.0175 c 0.5457,-0.0571 1.43867,-0.0571 1.98437,0 0.5457,0.0571 0.0992,0.10379 -0.99219,0.10379 -1.0914,0 -1.53789,-0.0467 -0.99218,-0.10379 z m -38.69532,-10.78746 c 0.34178,-0.3638 0.68094,-0.66146 0.7537,-0.66146 0.0728,0 -0.14734,0.29766 -0.48911,0.66146 -0.34178,0.3638 -0.68094,0.66146 -0.7537,0.66146 -0.0728,0 0.14734,-0.29766 0.48911,-0.66146 z m 39.88594,-4.01169 c 0.1819,-0.0734 0.47956,-0.0734 0.66146,0 0.1819,0.0734 0.0331,0.13345 -0.33073,0.13345 -0.3638,0 -0.51263,-0.06 -0.33073,-0.13345 z m -80.9301,-5.84404 c -0.32911,-0.41965 -0.31975,-0.42901 0.0999,-0.0999 0.44073,0.34565 0.58089,0.56292 0.36313,0.56292 -0.0549,0 -0.2633,-0.20836 -0.46302,-0.46302 z m -6.29536,-16.09549 c 0.0127,-0.30822 0.0754,-0.37092 0.15985,-0.15985 0.0764,0.19099 0.067,0.4192 -0.0209,0.50712 -0.0879,0.0879 -0.15045,-0.0684 -0.13896,-0.34727 z m 4.78338,-14.92691 c 0,-0.3638 0.0601,-0.51263 0.13346,-0.33073 0.0734,0.1819 0.0734,0.47956 0,0.66146 -0.0734,0.1819 -0.13346,0.0331 -0.13346,-0.33073 z m 21.14578,-0.6835 c 0.0127,-0.30823 0.0754,-0.37092 0.15985,-0.15986 0.0764,0.191 0.067,0.4192 -0.0209,0.50712 -0.0879,0.0879 -0.15045,-0.0684 -0.13897,-0.34726 z m -89.600215,-12.0165 c 0,-3.56526 0.03745,-5.02377 0.08323,-3.24114 0.04578,1.78263 0.04578,4.69966 0,6.48229 -0.04578,1.78263 -0.08323,0.32411 -0.08323,-3.24115 z m 171.269435,4.84036 c 0.32742,-0.0631 0.8632,-0.0631 1.19062,0 0.32742,0.0631 0.0595,0.11466 -0.59531,0.11466 -0.65485,0 -0.92274,-0.0516 -0.59531,-0.11466 z m -5.12272,-3.91432 c 5.3e-4,-1.89177 0.0426,-2.63096 0.0937,-1.64264 0.051,0.98832 0.0507,2.53613 -8e-4,3.43958 -0.0516,0.90346 -0.0933,0.0948 -0.0929,-1.79694 z m 13.14725,-1.08038 c 0.0127,-0.30822 0.0754,-0.37092 0.15985,-0.15985 0.0764,0.191 0.067,0.4192 -0.0209,0.50712 -0.0879,0.0879 -0.15046,-0.0683 -0.13897,-0.34727 z m 0.26458,-6.61458 c 0.0127,-0.30823 0.0754,-0.37092 0.15985,-0.15985 0.0764,0.19099 0.067,0.4192 -0.0209,0.50711 -0.0879,0.0879 -0.15045,-0.0683 -0.13897,-0.34726 z m -94.93651,-2.41677 c 0.40218,-0.0608 0.99749,-0.0592 1.32291,0.004 0.32542,0.0628 -0.004,0.11256 -0.73124,0.11057 -0.7276,-0.002 -0.99386,-0.0534 -0.59167,-0.11418 z m 44.38021,-2.0267 c 0,-0.0549 0.20836,-0.2633 0.46302,-0.46302 0.41965,-0.32911 0.429,-0.31975 0.0999,0.0999 -0.34565,0.44073 -0.56292,0.58089 -0.56292,0.36313 z m 50.82089,-2.17111 c 0.0127,-0.30823 0.0754,-0.37092 0.15985,-0.15986 0.0764,0.191 0.067,0.4192 -0.0209,0.50712 -0.0879,0.0879 -0.15045,-0.0684 -0.13896,-0.34726 z"
         id="path10442" />
      <path
         style="fill:#0044aa;stroke-width:0.264583"
         d="m 170.85819,180.84151 c 0.25466,-0.0666 0.67138,-0.0666 0.92604,0 0.25466,0.0666 0.0463,0.121 -0.46302,0.121 -0.50932,0 -0.71768,-0.0545 -0.46302,-0.121 z m -74.038304,-6.56449 c -2.35e-4,-2.91042 0.03842,-4.13714 0.0859,-2.72605 0.04748,1.41108 0.04767,3.79233 5.29e-4,5.29166 -0.04725,1.49933 -0.0861,0.34481 -0.08633,-2.56561 z M 263.3962,172.20985 c 0,-0.0455 0.38696,-0.43248 0.8599,-0.85989 l 0.8599,-0.77711 -0.77711,0.8599 c -0.72437,0.80154 -0.94269,0.98151 -0.94269,0.7771 z m -27.44548,-6.18597 c 0.25743,-0.0671 0.61462,-0.0627 0.79375,0.01 0.17913,0.0725 -0.0315,0.12736 -0.46806,0.12197 -0.43656,-0.005 -0.58312,-0.0647 -0.32569,-0.13177 z m 2.38125,0 c 0.25743,-0.0671 0.61462,-0.0627 0.79375,0.01 0.17913,0.0725 -0.0315,0.12736 -0.46806,0.12197 -0.43656,-0.005 -0.58312,-0.0647 -0.32569,-0.13177 z M 43.34806,157.54224 c 4.485232,-0.0407 11.748044,-0.0406 16.139583,6e-5 4.391535,0.0407 0.721799,0.074 -8.154972,0.074 -8.87677,-4e-5 -12.469846,-0.0333 -7.984611,-0.074 z m 127.68854,-2.38137 -0.64143,-0.7276 0.7276,0.64143 c 0.68006,0.59952 0.84894,0.81378 0.64143,0.81378 -0.0474,0 -0.37481,-0.32742 -0.7276,-0.72761 z m 11.37708,-9.525 -0.64143,-0.7276 0.7276,0.64143 c 0.40019,0.35279 0.72761,0.68021 0.72761,0.72761 0,0.2075 -0.21426,0.0386 -0.81378,-0.64144 z m -32.48195,-0.59531 c 0,-0.3638 0.0601,-0.51263 0.13346,-0.33073 0.0734,0.1819 0.0734,0.47956 0,0.66146 -0.0734,0.1819 -0.13346,0.0331 -0.13346,-0.33073 z m 42.60772,-0.92604 c 0.005,-0.43656 0.0647,-0.58313 0.13178,-0.32569 0.0671,0.25743 0.0627,0.61462 -0.01,0.79375 -0.0725,0.17913 -0.12736,-0.0315 -0.12197,-0.46806 z m -42.60772,-0.92604 c 0,-0.3638 0.0601,-0.51263 0.13346,-0.33073 0.0734,0.1819 0.0734,0.47956 0,0.66146 -0.0734,0.1819 -0.13346,0.0331 -0.13346,-0.33073 z m 65.55487,-8.40052 -0.64143,-0.72761 0.7276,0.64144 c 0.40018,0.35279 0.7276,0.68021 0.7276,0.7276 0,0.20751 -0.21426,0.0386 -0.81377,-0.64143 z m -39.6257,-4.0349 c 0,-0.3638 0.0601,-0.51263 0.13345,-0.33073 0.0734,0.1819 0.0734,0.47956 0,0.66146 -0.0734,0.1819 -0.13345,0.0331 -0.13345,-0.33073 z m -21.18755,-2.53559 c 0.0127,-0.30822 0.0754,-0.37092 0.15985,-0.15985 0.0764,0.19099 0.067,0.4192 -0.0209,0.50712 -0.0879,0.0879 -0.15045,-0.0684 -0.13896,-0.34727 z m 21.16666,-0.52916 c 0.0127,-0.30823 0.0754,-0.37092 0.15985,-0.15986 0.0764,0.191 0.067,0.4192 -0.0209,0.50712 -0.0879,0.0879 -0.15045,-0.0684 -0.13897,-0.34726 z m 83.78897,-6.38279 c 0.32912,-0.0633 0.80537,-0.0609 1.05833,0.005 0.25297,0.0662 -0.0163,0.118 -0.5984,0.11507 -0.58208,-0.003 -0.78905,-0.0571 -0.45993,-0.12041 z m -114.36923,-3.25246 c 0.56839,-0.58208 1.09297,-1.05833 1.16573,-1.05833 0.0728,0 -0.33276,0.47625 -0.90115,1.05833 -0.56838,0.58209 -1.09296,1.05834 -1.16572,1.05834 -0.0728,0 0.33275,-0.47625 0.90114,-1.05834 z m 51.84169,-0.0661 -0.77711,-0.8599 0.8599,0.77711 c 0.47294,0.4274 0.85989,0.81436 0.85989,0.85989 0,0.20441 -0.21831,0.0244 -0.94268,-0.7771 z m 68.45321,-2.57969 c 0,-0.3638 0.0601,-0.51263 0.13345,-0.33073 0.0734,0.1819 0.0734,0.47956 0,0.66146 -0.0734,0.1819 -0.13345,0.0331 -0.13345,-0.33073 z m -36.81886,-1.6874 c 0,-0.0549 0.20836,-0.2633 0.46302,-0.46302 0.41965,-0.3291 0.429,-0.31975 0.0999,0.0999 -0.34565,0.44073 -0.56292,0.58089 -0.56292,0.36312 z m 37.06255,-4.81694 c 0.0127,-0.30823 0.0754,-0.37092 0.15985,-0.15985 0.0764,0.19099 0.067,0.4192 -0.0209,0.50711 -0.0879,0.0879 -0.15045,-0.0684 -0.13897,-0.34726 z m 0.26459,-6.61458 c 0.0127,-0.30823 0.0754,-0.37092 0.15985,-0.15986 0.0764,0.191 0.067,0.4192 -0.0209,0.50712 -0.0879,0.0879 -0.15045,-0.0683 -0.13896,-0.34726 z m -25.99967,-6.905572 c 0.191,-0.07643 0.4192,-0.06703 0.50712,0.02089 0.0879,0.08792 -0.0684,0.150453 -0.34726,0.138964 -0.30823,-0.0127 -0.37092,-0.07539 -0.15986,-0.159852 z m 4.34909,-0.0016 c 0.25466,-0.06655 0.67138,-0.06655 0.92604,0 0.25466,0.06655 0.0463,0.121 -0.46302,0.121 -0.50932,0 -0.71768,-0.05445 -0.46302,-0.121 z"
         id="path10440" />
      <path
         style="fill:#0044aa;stroke-width:0.264583"
         d="m 8.4490557,174.27702 c -2.339e-4,-2.91042 0.038422,-4.13714 0.085903,-2.72605 0.047481,1.41108 0.047672,3.79233 4.26e-4,5.29166 -0.047247,1.49933 -0.086095,0.34481 -0.086329,-2.56561 z m 29.6333333,0 c -2.36e-4,-2.91042 0.03842,-4.13714 0.0859,-2.72605 0.04748,1.41108 0.04767,3.79233 5.29e-4,5.29166 -0.04725,1.49933 -0.08609,0.34481 -0.08633,-2.56561 z m 26.987499,0 c -2.36e-4,-2.91042 0.03842,-4.13714 0.0859,-2.72605 0.04748,1.41108 0.04767,3.79233 5.29e-4,5.29166 -0.04725,1.49933 -0.0861,0.34481 -0.08633,-2.56561 z m 60.809132,-6.66468 c 0.25466,-0.0665 0.67138,-0.0665 0.92604,0 0.25467,0.0666 0.0463,0.12101 -0.46302,0.12101 -0.50932,0 -0.71768,-0.0545 -0.46302,-0.12101 z m 44.84996,-0.79849 c 0.32912,-0.0633 0.80537,-0.0609 1.05833,0.005 0.25297,0.0662 -0.0163,0.11801 -0.59839,0.11507 -0.58209,-0.003 -0.78906,-0.0571 -0.45994,-0.1204 z m -51.82902,-2.12798 c -0.32911,-0.41964 -0.31975,-0.429 0.0999,-0.0999 0.44073,0.34564 0.58088,0.56292 0.36312,0.56292 -0.0549,0 -0.2633,-0.20836 -0.46302,-0.46303 z m 63.62194,-1.50971 c 0,-0.21188 0.10116,-0.32272 0.2248,-0.2463 0.12364,0.0764 0.15631,0.24977 0.0726,0.38523 -0.21394,0.34618 -0.29738,0.3072 -0.29738,-0.13893 z m 88.06964,-7.15539 c 0.005,-0.43656 0.0647,-0.58313 0.13177,-0.32569 0.0671,0.25743 0.0627,0.61462 -0.01,0.79375 -0.0725,0.17913 -0.12736,-0.0315 -0.12197,-0.46806 z m -0.01,-1.98437 c 0,-0.36381 0.06,-0.51263 0.13345,-0.33073 0.0734,0.1819 0.0734,0.47955 0,0.66145 -0.0734,0.18191 -0.13345,0.0331 -0.13345,-0.33072 z m -87.12343,-7.34219 c -0.32911,-0.41965 -0.31975,-0.42901 0.0999,-0.0999 0.44073,0.34565 0.58088,0.56292 0.36312,0.56292 -0.0549,0 -0.2633,-0.20836 -0.46302,-0.46302 z m 9.07136,-1.38906 c 0,-0.36381 0.06,-0.51263 0.13345,-0.33073 0.0734,0.1819 0.0734,0.47955 0,0.66145 -0.0734,0.18191 -0.13345,0.0331 -0.13345,-0.33072 z m 0,-2.38125 c 0,-0.36381 0.06,-0.51263 0.13345,-0.33073 0.0734,0.1819 0.0734,0.47955 0,0.66145 -0.0734,0.18191 -0.13345,0.0331 -0.13345,-0.33072 z m 15.32495,-1.47726 c 0.0127,-0.30823 0.0754,-0.37092 0.15985,-0.15985 0.0764,0.19099 0.067,0.41919 -0.0209,0.50712 -0.0879,0.0879 -0.15045,-0.0684 -0.13896,-0.34727 z m 57.50084,-0.44097 -0.50403,-0.59532 0.59532,0.50403 c 0.55944,0.47366 0.71576,0.6866 0.50402,0.6866 -0.0502,0 -0.31809,-0.26789 -0.59531,-0.59531 z m -78.84583,-12.7 -0.50403,-0.59532 0.59532,0.50403 c 0.55944,0.47366 0.71576,0.6866 0.50402,0.6866 -0.0502,0 -0.31809,-0.26789 -0.59531,-0.59531 z m -1.46382,-1.45521 c -0.32911,-0.41965 -0.31975,-0.42901 0.0999,-0.0999 0.25466,0.19972 0.46302,0.40808 0.46302,0.46302 0,0.21777 -0.21728,0.0776 -0.56292,-0.36312 z m 44.19914,-3.70417 -0.64143,-0.7276 0.7276,0.64143 c 0.40018,0.35279 0.72761,0.68021 0.72761,0.7276 0,0.20751 -0.21426,0.0386 -0.81378,-0.64143 z m 32.23305,-1.84037 c 0.32742,-0.0631 0.8632,-0.0631 1.19062,0 0.32742,0.0631 0.0595,0.11466 -0.59531,0.11466 -0.65485,0 -0.92274,-0.0516 -0.59531,-0.11466 z m 3.81208,-0.34244 c 0,-0.3638 0.0601,-0.51263 0.13346,-0.33073 0.0734,0.1819 0.0734,0.47956 0,0.66146 -0.0734,0.1819 -0.13346,0.0331 -0.13346,-0.33073 z m 0.26459,-6.61458 c 0,-0.36381 0.0601,-0.51263 0.13345,-0.33073 0.0734,0.1819 0.0734,0.47955 0,0.66145 -0.0734,0.18191 -0.13345,0.0331 -0.13345,-0.33072 z M 89.51399,109.9178 c 1.790975,-0.0459 4.648475,-0.0457 6.349999,3.1e-4 1.701525,0.046 0.236181,0.0835 -3.256319,0.0833 -3.4925,-1.7e-4 -4.884656,-0.0378 -3.09368,-0.0837 z m 30.94107,-2.9e-4 c 2.65576,-0.0432 7.00154,-0.0432 9.6573,0 2.65575,0.0432 0.48286,0.0785 -4.82865,0.0785 -5.31151,0 -7.4844,-0.0353 -4.82865,-0.0785 z m 145.36417,-1.91861 c 0,-0.36381 0.0601,-0.51263 0.13345,-0.33073 0.0734,0.1819 0.0734,0.47955 0,0.66145 -0.0734,0.18191 -0.13345,0.0331 -0.13345,-0.33072 z M 28.821972,101.25202 c -2.34e-4,-2.910416 0.03842,-4.13714 0.0859,-2.726053 0.04748,1.411087 0.04767,3.792333 4.23e-4,5.291663 -0.04725,1.49933 -0.08609,0.34481 -0.08633,-2.56561 z m 237.261838,0.13229 c 0,-0.3638 0.0601,-0.51263 0.13346,-0.33073 0.0734,0.1819 0.0734,0.47956 0,0.66146 -0.0734,0.1819 -0.13346,0.0331 -0.13346,-0.33073 z m -24.72007,-6.01179 c 0.4697,-0.05845 1.30314,-0.05941 1.85209,-0.0021 0.54894,0.05728 0.16465,0.105098 -0.854,0.106272 -1.01865,0.0012 -1.46779,-0.04569 -0.99809,-0.104138 z"
         id="path10438" />
      <path
         style="fill:#0044aa;stroke-width:0.264583"
         d="m 118.53684,180.46103 c -1.01865,-0.12724 -2.89376,-0.52733 -4.16691,-0.8891 -8.8634,-2.51855 -14.10168,-8.82517 -15.270444,-18.38484 -0.16452,-1.34568 -0.274108,-9.46421 -0.274108,-20.30678 V 122.81556 H 92.60767 86.389962 v -6.35 -6.35 h 6.217708 6.217708 v -7.14375 -7.143748 h 8.466662 8.46667 v 7.143748 7.14375 h 9.525 9.525 v 6.35 6.35 h -9.53374 -9.53374 l 0.0789,18.05781 c 0.0884,20.24031 2.7e-4,19.28323 2.0583,22.36505 1.1436,1.71256 3.05578,3.20224 5.02405,3.91399 1.46518,0.52983 4.88991,0.59723 6.87917,0.13539 2.36453,-0.54896 6.04717,-2.46321 7.75854,-4.03291 l 1.54084,-1.41329 -1.04621,-2.25149 c -1.26862,-2.73013 -2.24476,-5.75362 -2.87155,-8.89434 -0.70567,-3.53596 -0.63611,-10.1935 0.14466,-13.84583 0.62281,-2.91338 1.97533,-6.8186 3.21767,-9.29055 2.24712,-4.47123 6.64908,-9.69688 10.8155,-12.83931 1.99382,-1.50379 8.10739,-4.81041 9.73262,-5.26402 l 0.58479,-0.16322 -0.63988,1.14486 c -1.73041,3.09604 -3.81085,11.44068 -4.24036,17.00807 -0.16322,2.11574 -0.29259,2.55826 -1.16026,3.96875 -2.94043,4.77997 -4.17813,10.33914 -3.47826,15.62268 1.26405,9.5427 7.87982,17.24943 16.59915,19.33643 2.42265,0.57986 6.81105,0.56557 9.21254,-0.03 1.82249,-0.45199 5.60598,-2.08369 6.58576,-2.84024 0.46722,-0.36078 0.37964,-0.44282 -1.32292,-1.23942 -6.74249,-3.15468 -13.40878,-9.75265 -16.94168,-16.76806 -1.13406,-2.25192 -2.55119,-6.45993 -3.18289,-9.45118 -0.71941,-3.4066 -0.6541,-10.59554 0.12916,-14.21703 0.97732,-4.51874 2.9748,-9.3425 5.28816,-12.77047 l 0.98204,-1.45521 4.36347,0.017 c 7.64457,0.0297 13.46547,1.81074 19.88471,6.0842 14.53731,9.67788 20.18963,28.3701 13.45365,44.4912 -4.63816,11.10041 -14.48435,19.23309 -26.52795,21.91133 -2.9388,0.65353 -9.56767,0.80991 -12.77293,0.30132 -6.87459,-1.09081 -13.15907,-3.93853 -18.28143,-8.28396 -0.91928,-0.77985 -1.73209,-1.41791 -1.80624,-1.41791 -0.0741,0 -0.63637,0.54412 -1.24938,1.20917 -0.61302,0.66504 -2.01446,1.88681 -3.11431,2.71503 -6.37043,4.79713 -14.53668,6.87657 -22.9018,5.83168 z m 73.3659,-30.32724 c 0.16081,-0.5457 0.43137,-2.05214 0.60126,-3.34763 0.94789,-7.22831 -2.2874,-15.75006 -7.68485,-20.24186 -2.97611,-2.47675 -7.48062,-4.73936 -7.94368,-3.9901 -0.94714,1.5325 -1.21318,8.83504 -0.43714,11.99902 1.4137,5.76385 4.59367,10.57271 9.01054,13.62609 1.78681,1.23522 5.14175,2.91318 5.87264,2.93718 0.15887,0.005 0.42042,-0.437 0.58123,-0.9827 z m 39.08201,30.47018 c -0.43656,-0.06 -1.92485,-0.23768 -3.30729,-0.39495 -6.18101,-0.70316 -13.62285,-2.81759 -18.97562,-5.3915 -1.64164,-0.78939 -2.9848,-1.5061 -2.9848,-1.59268 0,-0.0866 0.72347,-1.29428 1.60772,-2.68376 0.88425,-1.38948 2.52449,-4.16395 3.64499,-6.16549 l 2.03726,-3.63916 2.37429,0.88529 c 10.8115,4.03123 21.92131,5.49162 28.66236,3.76767 4.29918,-1.09947 7.19314,-2.96598 8.3893,-5.41085 0.62167,-1.27065 0.69788,-1.69117 0.58682,-3.23819 -0.34735,-4.83894 -3.88138,-7.32139 -16.2142,-11.38954 -12.03371,-3.96949 -16.97112,-6.47111 -21.17277,-10.72752 -3.90755,-3.95848 -5.50719,-8.23124 -5.51021,-14.71814 -0.002,-4.05938 0.40059,-6.07894 1.83711,-9.21816 3.34002,-7.29894 10.27321,-12.049345 20.93323,-14.34279 3.8009,-0.817743 12.31411,-1.007003 17.82331,-0.396237 5.15213,0.57118 14.45556,2.252685 15.27884,2.761501 0.25768,0.159255 -0.49251,22.384846 -0.76277,22.598316 -0.064,0.0505 -2.94177,0.0395 -6.3951,-0.0246 l -6.27878,-0.11648 -0.0712,-5.71685 -0.0712,-5.71685 -1.19063,-0.24731 c -0.65484,-0.13602 -3.75047,-0.25622 -6.87916,-0.26711 -5.06243,-0.0176 -5.94729,0.0456 -8.03933,0.57438 -6.01783,1.52108 -9.15859,4.37444 -9.15859,8.32053 0,2.61708 1.1128,4.48815 3.81685,6.41768 3.08789,2.20344 6.77489,3.82351 15.36544,6.75159 10.52552,3.58762 15.13205,5.96188 18.94778,9.76593 1.8639,1.8582 2.47403,2.68172 3.34956,4.52102 1.4399,3.02492 1.94941,5.4816 1.94806,9.39271 -0.002,7.12548 -2.2917,12.59521 -7.16441,17.11818 -4.35795,4.04517 -9.96155,6.58524 -17.74482,8.04361 -2.14803,0.40248 -12.72741,0.74817 -14.682,0.47974 z M 8.6024645,174.27702 v -5.15937 l 3.5057295,-0.004 3.505729,-0.004 10.960154,-31.01878 c 6.028085,-17.06033 11.011684,-31.1676 11.074662,-31.34951 0.0886,-0.2559 -0.879599,-0.33072 -4.279426,-0.33072 H 28.97538 v -5.16126 -5.161245 l 17.64416,0.06802 17.64416,0.06802 11.45623,32.279165 c 6.300927,17.75355 12.126819,34.1544 12.946422,36.44636 l 1.490189,4.16719 h 3.276086 3.276084 v 5.15937 5.15938 H 80.966003 65.223296 v -5.15938 -5.15937 h 3.175 c 1.74625,0 3.174999,-0.0698 3.174999,-0.15516 0,-0.12879 -3.370029,-9.77874 -3.870176,-11.0821 -0.13689,-0.35673 -2.063208,-0.40441 -16.337653,-0.40441 H 35.183005 l -1.942545,5.47882 c -1.0684,3.01336 -2.001604,5.63273 -2.073786,5.82084 -0.103188,0.2689 0.610036,0.34201 3.336648,0.34201 h 3.467891 v 5.15937 5.15938 H 23.286839 8.6024645 Z M 61.884469,141.40254 c -0.659813,-1.85539 -3.226613,-9.08844 -5.704004,-16.07344 -2.477392,-6.985 -4.594603,-12.86356 -4.704916,-13.06348 -0.145034,-0.26283 -0.275696,-0.15295 -0.4719,0.39688 -4.843529,13.57315 -11.180352,31.61229 -11.180352,31.82728 0,0.20087 3.467727,0.2862 11.630413,0.2862 h 11.630414 z"
         id="path10436" />
    </g>
    <path
       style="fill:#000000;stroke-width:0.264583"
       id="path10172"
       d="" />
    <path
       style="fill:#000000;stroke-width:0.264583"
       id="path10016"
       d="" />
    <path
       style="fill:#000000;stroke-width:0.264583"
       id="path9996"
       d="" />
  </g>
</svg>
